<svg width="161" height="40" viewBox="0 0 161 40" fill="none" xmlns="http://www.w3.org/2000/svg">
<path d="M58.4545 31H49.5V7.72727H58.3636C60.7576 7.72727 62.8258 8.19318 64.5682 9.125C66.3182 10.0492 67.6667 11.3826 68.6136 13.125C69.5682 14.8598 70.0455 16.9394 70.0455 19.3636C70.0455 21.7879 69.572 23.8712 68.625 25.6136C67.678 27.3485 66.3371 28.6818 64.6023 29.6136C62.8674 30.5379 60.8182 31 58.4545 31ZM55.8182 25.6364H58.2273C59.3788 25.6364 60.3598 25.4508 61.1705 25.0795C61.9886 24.7083 62.6098 24.0682 63.0341 23.1591C63.4659 22.25 63.6818 20.9848 63.6818 19.3636C63.6818 17.7424 63.4621 16.4773 63.0227 15.5682C62.5909 14.6591 61.9545 14.0189 61.1136 13.6477C60.2803 13.2765 59.2576 13.0909 58.0455 13.0909H55.8182V25.6364ZM81.4233 31.3182C79.5597 31.3182 77.9536 30.9621 76.6051 30.25C75.2642 29.5303 74.2301 28.5 73.5028 27.1591C72.7831 25.8106 72.4233 24.197 72.4233 22.3182C72.4233 20.5152 72.7869 18.9394 73.5142 17.5909C74.2415 16.2424 75.268 15.1932 76.5938 14.4432C77.9195 13.6932 79.4839 13.3182 81.2869 13.3182C82.6051 13.3182 83.7983 13.5227 84.8665 13.9318C85.9347 14.3409 86.8475 14.9356 87.6051 15.7159C88.3627 16.4886 88.946 17.428 89.3551 18.5341C89.7642 19.6402 89.9688 20.8864 89.9688 22.2727V23.7273H74.3778V20.2727H84.196C84.1884 19.7727 84.0597 19.3333 83.8097 18.9545C83.5672 18.5682 83.2377 18.2689 82.821 18.0568C82.4119 17.8371 81.946 17.7273 81.4233 17.7273C80.9157 17.7273 80.4498 17.8371 80.0256 18.0568C79.6013 18.2689 79.2604 18.5644 79.0028 18.9432C78.7528 19.322 78.6203 19.7652 78.6051 20.2727V24C78.6051 24.5606 78.7225 25.0606 78.9574 25.5C79.1922 25.9394 79.5294 26.2841 79.9688 26.5341C80.4081 26.7841 80.9384 26.9091 81.5597 26.9091C81.9915 26.9091 82.3854 26.8485 82.7415 26.7273C83.1051 26.6061 83.4157 26.4318 83.6733 26.2045C83.9309 25.9697 84.1203 25.6894 84.2415 25.3636H89.9688C89.7718 26.5758 89.3059 27.6288 88.571 28.5227C87.8362 29.4091 86.8627 30.0985 85.6506 30.5909C84.446 31.0758 83.0369 31.3182 81.4233 31.3182ZM108.483 19.2273H102.71C102.68 18.8712 102.555 18.5644 102.335 18.3068C102.116 18.0492 101.831 17.8523 101.483 17.7159C101.142 17.572 100.763 17.5 100.347 17.5C99.8087 17.5 99.3466 17.5985 98.9602 17.7955C98.5739 17.9924 98.3845 18.2727 98.392 18.6364C98.3845 18.8939 98.4943 19.1326 98.7216 19.3523C98.9564 19.572 99.4072 19.7424 100.074 19.8636L103.619 20.5C105.407 20.8258 106.737 21.375 107.608 22.1477C108.487 22.9129 108.93 23.9394 108.938 25.2273C108.93 26.4697 108.559 27.5492 107.824 28.4659C107.097 29.375 106.1 30.0795 104.835 30.5795C103.578 31.072 102.142 31.3182 100.528 31.3182C97.8617 31.3182 95.7746 30.7727 94.267 29.6818C92.767 28.5909 91.9299 27.1515 91.7557 25.3636H97.983C98.0663 25.9167 98.339 26.3447 98.8011 26.6477C99.2708 26.9432 99.8617 27.0909 100.574 27.0909C101.15 27.0909 101.623 26.9924 101.994 26.7955C102.373 26.5985 102.566 26.3182 102.574 25.9545C102.566 25.6212 102.4 25.3561 102.074 25.1591C101.756 24.9621 101.256 24.803 100.574 24.6818L97.483 24.1364C95.7027 23.8258 94.3693 23.2348 93.483 22.3636C92.5966 21.4924 92.1572 20.3712 92.1648 19C92.1572 17.7879 92.4754 16.7614 93.1193 15.9205C93.7708 15.072 94.6989 14.428 95.9034 13.9886C97.1155 13.5417 98.5511 13.3182 100.21 13.3182C102.733 13.3182 104.722 13.8409 106.176 14.8864C107.638 15.9318 108.407 17.3788 108.483 19.2273ZM111.341 31V13.5455H117.614V31H111.341ZM114.477 11.7273C113.629 11.7273 112.902 11.447 112.295 10.8864C111.689 10.3258 111.386 9.65151 111.386 8.86364C111.386 8.07576 111.689 7.40151 112.295 6.84091C112.902 6.2803 113.629 6 114.477 6C115.333 6 116.061 6.2803 116.659 6.84091C117.265 7.40151 117.568 8.07576 117.568 8.86364C117.568 9.65151 117.265 10.3258 116.659 10.8864C116.061 11.447 115.333 11.7273 114.477 11.7273ZM129.219 37.9091C127.469 37.9091 125.969 37.6591 124.719 37.1591C123.476 36.6667 122.51 35.9848 121.821 35.1136C121.139 34.25 120.757 33.2576 120.673 32.1364H126.719C126.779 32.5076 126.931 32.8068 127.173 33.0341C127.416 33.2614 127.726 33.4242 128.105 33.5227C128.491 33.6288 128.923 33.6818 129.401 33.6818C130.211 33.6818 130.882 33.4848 131.412 33.0909C131.95 32.697 132.219 31.9848 132.219 30.9545V28H132.037C131.81 28.5909 131.461 29.0947 130.991 29.5114C130.522 29.9205 129.957 30.2348 129.298 30.4545C128.639 30.6667 127.916 30.7727 127.128 30.7727C125.885 30.7727 124.741 30.4848 123.696 29.9091C122.658 29.3333 121.825 28.4205 121.196 27.1705C120.575 25.9205 120.264 24.2879 120.264 22.2727C120.264 20.1667 120.59 18.4545 121.241 17.1364C121.901 15.8182 122.749 14.8523 123.787 14.2386C124.832 13.625 125.931 13.3182 127.082 13.3182C127.946 13.3182 128.704 13.4697 129.355 13.7727C130.007 14.0682 130.552 14.4659 130.991 14.9659C131.431 15.4583 131.764 16 131.991 16.5909H132.128V13.5455H138.401V30.9545C138.401 32.4318 138.018 33.6856 137.253 34.7159C136.495 35.7538 135.427 36.5455 134.048 37.0909C132.67 37.6364 131.06 37.9091 129.219 37.9091ZM129.446 26.3182C130.022 26.3182 130.514 26.1591 130.923 25.8409C131.34 25.5152 131.658 25.053 131.878 24.4545C132.105 23.8485 132.219 23.1212 132.219 22.2727C132.219 21.4091 132.105 20.6705 131.878 20.0568C131.658 19.4356 131.34 18.9621 130.923 18.6364C130.514 18.303 130.022 18.1364 129.446 18.1364C128.87 18.1364 128.378 18.303 127.969 18.6364C127.567 18.9621 127.257 19.4356 127.037 20.0568C126.825 20.6705 126.719 21.4091 126.719 22.2727C126.719 23.1364 126.825 23.8712 127.037 24.4773C127.257 25.0758 127.567 25.5341 127.969 25.8523C128.378 26.1629 128.87 26.3182 129.446 26.3182ZM147.864 21.1818V31H141.591V13.5455H147.545V16.8636H147.727C148.106 15.7576 148.773 14.8902 149.727 14.2614C150.689 13.6326 151.811 13.3182 153.091 13.3182C154.326 13.3182 155.398 13.6023 156.307 14.1705C157.223 14.7311 157.932 15.5038 158.432 16.4886C158.939 17.4735 159.189 18.5985 159.182 19.8636V31H152.909V21.1818C152.917 20.3182 152.697 19.6402 152.25 19.1477C151.811 18.6553 151.197 18.4091 150.409 18.4091C149.894 18.4091 149.443 18.5227 149.057 18.75C148.678 18.9697 148.386 19.2879 148.182 19.7045C147.977 20.1136 147.871 20.6061 147.864 21.1818Z" fill="white"/>
<rect width="40" height="40" fill="white"/>
<path d="M7.5 30.033V9.84375H12.9811V18.0062H13.2571L19.3297 9.84375H25.7177L18.8959 18.8343L25.8754 30.033H19.3297L14.795 22.462L12.9811 24.828V30.033H7.5Z" fill="#444444"/>
<path d="M19.7337 17.7302L18.8959 18.8343L20.9603 22.1466H27.0189V30.033H32.5V9.84375H27.0189V17.7302H19.7337Z" fill="#444444"/>
</svg>
